<svg width="144" height="130" viewBox="0 0 144 130" fill="none" xmlns="http://www.w3.org/2000/svg">
<path d="M134.482 101.97L116.351 91.5403C116.053 91.3704 115.724 91.2606 115.384 91.2172C115.043 91.1739 114.697 91.1977 114.366 91.2874C114.035 91.3771 113.725 91.5309 113.453 91.74C113.182 91.9492 112.954 92.2096 112.784 92.5063L109.512 98.1549C108.789 99.3992 109.216 101.004 110.466 101.724L128.597 112.154C128.895 112.324 129.224 112.433 129.564 112.477C129.905 112.52 130.25 112.496 130.582 112.407C130.913 112.317 131.223 112.163 131.495 111.954C131.766 111.745 131.994 111.484 132.164 111.188L135.436 105.539C136.159 104.295 135.715 102.69 134.482 101.97V101.97ZM112.767 37.4937C112.938 37.7904 113.165 38.0508 113.437 38.26C113.708 38.4691 114.019 38.6229 114.35 38.7126C114.681 38.8023 115.027 38.8261 115.367 38.7828C115.708 38.7394 116.036 38.6296 116.334 38.4597L134.466 28.0302C135.715 27.3098 136.142 25.7053 135.419 24.461L132.164 18.8287C131.994 18.532 131.766 18.2716 131.495 18.0625C131.223 17.8533 130.913 17.6995 130.582 17.6098C130.25 17.5201 129.905 17.4963 129.564 17.5397C129.224 17.5831 128.895 17.6928 128.597 17.8627L110.466 28.2922C109.865 28.6408 109.428 29.212 109.249 29.8808C109.071 30.5497 109.165 31.2618 109.512 31.8615L112.767 37.4937ZM141.37 59.1058H120.329C118.882 59.1058 117.699 60.2846 117.699 61.7254V68.2746C117.699 69.7154 118.882 70.8942 120.329 70.8942H141.37C142.816 70.8942 144 69.7154 144 68.2746V61.7254C144 60.2846 142.816 59.1058 141.37 59.1058ZM90.7233 0C89.7534 0 88.7671 0.261965 87.863 0.867759L29.589 38.8035H2.63014C1.18356 38.8035 0 39.9824 0 41.4232V88.5768C0 90.0176 1.18356 91.1965 2.63014 91.1965H29.589L87.863 129.132C88.7671 129.722 89.7699 130 90.7233 130C93.4685 130 96 127.822 96 124.744V5.25567C96 2.17758 93.4685 0 90.7233 0Z" fill="white"/>
</svg>
