<svg width="347" height="398" viewBox="0 0 347 398" fill="none" xmlns="http://www.w3.org/2000/svg">
<rect x="64" y="149" width="82" height="57" rx="28.5" fill="white"/>
<rect x="171" y="149" width="81" height="57" rx="28.5" fill="white"/>
<path d="M64 118C64 109.716 70.7157 103 79 103H146V103C146 111.284 139.284 118 131 118H64V118Z" fill="black"/>
<path d="M171 118H239C247.284 118 254 124.716 254 133V133H186C177.716 133 171 126.284 171 118V118Z" fill="black"/>
<path d="M0 160C0 143.431 13.4315 130 30 130H44.0939V226H30C13.4315 226 0 212.569 0 196V160Z" fill="#727272"/>
<path d="M301.948 130H317C333.569 130 347 143.431 347 160V196C347 212.569 333.569 226 317 226H301.948V130Z" fill="#727272"/>
<path d="M321.119 130C321.119 95.5219 305.516 62.4559 277.742 38.0761C249.968 13.6964 212.299 2.60303e-06 173.021 0C133.743 -2.60303e-06 96.0734 13.6964 68.2996 38.0761C40.5258 62.4558 24.9227 95.5218 24.9227 130L43.6828 130C43.6828 99.8893 57.3094 71.0119 81.565 49.7205C105.821 28.429 138.718 16.4676 173.021 16.4676C207.323 16.4676 240.221 28.429 264.476 49.7205C288.732 71.0119 302.359 99.8893 302.359 130H321.119Z" fill="url(#paint0_linear)"/>
<rect x="71" y="252" width="181" height="64" rx="30" fill="black"/>
<rect x="133" y="252" width="26" height="20" fill="white"/>
<rect x="164" y="252" width="26" height="20" fill="white"/>
<path d="M125 301C125 295.477 129.477 291 135 291H149C154.523 291 159 295.477 159 301V316H125V301Z" fill="#FD8383"/>
<path d="M159 301C159 295.477 163.477 291 169 291H186C191.523 291 196 295.477 196 301V316H159V301Z" fill="#FD8383"/>
<path fill-rule="evenodd" clip-rule="evenodd" d="M28 282C28 265.431 41.4315 252 58 252H105C121.569 252 135 265.431 135 282V291H123V304H135V318H123V331H135V344H123V357H135V368C135 384.569 121.569 398 105 398H58C41.4315 398 28 384.569 28 368V357H40V344H28V331H40V318H28V304H40V291H28V282Z" fill="url(#paint1_linear)"/>
<defs>
<linearGradient id="paint0_linear" x1="173.021" y1="0" x2="173.021" y2="260" gradientUnits="userSpaceOnUse">
<stop stop-color="white"/>
<stop offset="1" stop-color="#474747"/>
</linearGradient>
<linearGradient id="paint1_linear" x1="28" y1="320.5" x2="132.5" y2="321.5" gradientUnits="userSpaceOnUse">
<stop stop-color="#8E8E8E"/>
<stop offset="0.70354" stop-color="white"/>
<stop offset="1" stop-color="#A0A0A0"/>
</linearGradient>
</defs>
</svg>
