<svg width="96" height="120" viewBox="0 0 96 120" fill="none" xmlns="http://www.w3.org/2000/svg">
<path d="M11.9064 59.657H0C0 83.8984 18.2227 103.925 41.6724 106.872V119.189H53.5788V106.872C77.0284 103.925 95.2512 83.9044 95.2512 59.657H83.3448C83.3448 79.3561 67.3247 95.3762 47.6256 95.3762C27.9265 95.3762 11.9064 79.3561 11.9064 59.657Z" fill="black"/>
<path d="M23.8128 59.657C23.8128 72.7898 34.4928 83.4698 47.6256 83.4698C60.7583 83.4698 71.4384 72.7898 71.4384 59.657H59.532V47.7506H71.4384V35.8442H59.532V23.9378H71.4384C71.4384 10.7396 60.8119 0 47.7506 0C47.3316 0.00251763 46.9142 0.0524451 46.5064 0.14883C40.3939 0.445182 34.6293 3.07991 30.4052 7.50788C26.1811 11.9359 23.8209 17.8182 23.8128 23.9378H47.6256V35.8442H23.8128V47.7506H47.6256V59.657H23.8128Z" fill="black"/>
</svg>
