<svg width="47" height="47" viewBox="0 0 47 47" fill="none" xmlns="http://www.w3.org/2000/svg">
<path d="M37.6 18.8C37.6 15.0604 36.1145 11.4741 33.4702 8.82979C30.8259 6.18553 27.2396 4.7 23.5 4.7C19.7604 4.7 16.1741 6.18553 13.5298 8.82979C10.8855 11.4741 9.4 15.0604 9.4 18.8V44.65H4.7C3.45348 44.65 2.25802 44.1548 1.3766 43.2734C0.495177 42.392 0 41.1965 0 39.95V30.55C0 29.3035 0.495177 28.108 1.3766 27.2266C2.25802 26.3452 3.45348 25.85 4.7 25.85V18.8C4.7 13.8139 6.68071 9.03208 10.2064 5.50639C13.7321 1.98071 18.5139 0 23.5 0C28.4861 0 33.2679 1.98071 36.7936 5.50639C40.3193 9.03208 42.3 13.8139 42.3 18.8V25.85C43.5465 25.85 44.742 26.3452 45.6234 27.2266C46.5048 28.108 47 29.3035 47 30.55V39.95C47 41.1965 46.5048 42.392 45.6234 43.2734C44.742 44.1548 43.5465 44.65 42.3 44.65H37.6V18.8ZM28.2 23.5H35.25V47H28.2V23.5ZM11.75 23.5H18.8V47H11.75V23.5Z" fill="#C93535"/>
</svg>
